<svg xmlns="http://www.w3.org/2000/svg" width="28.824" height="28.84" viewBox="0 0 28.824 28.84">
  <g id="Group_8641" data-name="Group 8641" transform="translate(-2476.608 949.169)">
    <path id="Path_34750" data-name="Path 34750" d="M2479.7-932.086c-.341-.03-.652-.031-.952-.087a2.649,2.649,0,0,1-1.511-4.312c.067-.079.138-.154.211-.227q5.817-5.819,11.639-11.633a3.341,3.341,0,0,1,.79-.576,2.762,2.762,0,0,1,2.964.43c.414.435.851.849,1.276,1.274q5.22,5.221,10.435,10.447a2.876,2.876,0,0,1,.655.9,2.635,2.635,0,0,1-2.339,3.749c-.157.007-.314,0-.5,0v.362c0,2.752,0,5.5,0,8.257a3.079,3.079,0,0,1-2.4,3.072,3.766,3.766,0,0,1-.837.084c-1.427.008-2.855,0-4.282,0-.716,0-1.035-.316-1.035-1.025q0-3.227,0-6.453a1.436,1.436,0,0,0-1.591-1.582c-.807,0-1.615,0-2.422,0a1.419,1.419,0,0,0-1.529,1.53q0,3.241,0,6.482c0,.736-.311,1.049-1.041,1.049-1.409,0-2.818-.031-4.226.008a3.2,3.2,0,0,1-3.306-3.314c.048-2.7.012-5.392.012-8.088Zm15.8,10.057h3.567a1.44,1.44,0,0,0,1.613-1.615q0-4.594,0-9.188a.873.873,0,0,1,.974-.975c.385,0,.77,0,1.155,0a.952.952,0,0,0,.944-.773,1.127,1.127,0,0,0-.446-1.061q-5.712-5.7-11.418-11.416a1.022,1.022,0,0,0-1.708.005L2480-936.87c-.465.465-.932.927-1.394,1.4a.926.926,0,0,0-.223,1.086.926.926,0,0,0,.916.582h1.042c.746,0,1.054.312,1.054,1.066q0,4.594,0,9.188a1.418,1.418,0,0,0,1.533,1.524q1.677,0,3.353,0c.09,0,.181-.009.292-.016v-.355c0-1.907-.016-3.814.012-5.721a3,3,0,0,1,2.723-2.921c1.149-.077,2.307-.016,3.462-.013a1.289,1.289,0,0,1,.277.043,3.078,3.078,0,0,1,2.448,3.066c.011,1.851,0,3.7,0,5.552Z" transform="translate(0)" fill="#262b6d"/>
  </g>
</svg>
