<svg xmlns="http://www.w3.org/2000/svg" width="26.331" height="25.012" viewBox="0 0 26.331 25.012">
  <g id="Group_8669" data-name="Group 8669" transform="translate(232.589 50.613)">
    <path id="Path_34817" data-name="Path 34817" d="M-213.3-50.613h-12.247a7.043,7.043,0,0,0-7.042,7.042v15.823a2.144,2.144,0,0,0,3.483,1.673l3.462-2.77a1.534,1.534,0,0,1,.957-.336H-213.3a7.041,7.041,0,0,0,7.042-7.042v-7.348A7.042,7.042,0,0,0-213.3-50.613Zm0,19.6h-11.387a3.371,3.371,0,0,0-2.1.738l-3.462,2.77a.307.307,0,0,1-.5-.239V-43.571a5.205,5.205,0,0,1,5.2-5.2H-213.3a5.2,5.2,0,0,1,5.2,5.2v7.348A5.2,5.2,0,0,1-213.3-31.018Z" transform="translate(0)" fill="#e4e4e4"/>
    <circle id="Ellipse_3126" data-name="Ellipse 3126" cx="1.531" cy="1.531" r="1.531" transform="translate(-227.016 -41.366)" fill="#e4e4e4"/>
    <circle id="Ellipse_3127" data-name="Ellipse 3127" cx="1.531" cy="1.531" r="1.531" transform="translate(-220.893 -41.366)" fill="#e4e4e4"/>
    <circle id="Ellipse_3128" data-name="Ellipse 3128" cx="1.531" cy="1.531" r="1.531" transform="translate(-214.769 -41.366)" fill="#e4e4e4"/>
  </g>
</svg>
