<svg xmlns="http://www.w3.org/2000/svg" width="17.152" height="21.5" viewBox="0 0 17.152 21.5">
  <g id="Group_8645" data-name="Group 8645" transform="translate(-3.25 -1.25)">
    <path id="Path_34768" data-name="Path 34768" d="M19.83,12.8c-.309-.518-.59-.933-.821-1.4a2.771,2.771,0,0,1-.346-1.227V8.087a6.837,6.837,0,0,0-13.674,0V10.18a2.758,2.758,0,0,1-.346,1.227c-.231.463-.512.878-.821,1.4a4.062,4.062,0,0,0-.572,2.082,3.946,3.946,0,0,0,3.38,3.941,41.113,41.113,0,0,0,5.2.446,41.1,41.1,0,0,0,5.2-.446,3.946,3.946,0,0,0,3.38-3.941A4.062,4.062,0,0,0,19.83,12.8Zm-3.014,4.538a39.948,39.948,0,0,1-4.99.431,39.948,39.948,0,0,1-4.99-.431A2.448,2.448,0,0,1,4.75,14.885a2.556,2.556,0,0,1,.361-1.314c.254-.427.61-.965.874-1.494a4.241,4.241,0,0,0,.5-1.9V8.087a5.337,5.337,0,0,1,10.674,0V10.18a4.241,4.241,0,0,0,.5,1.9c.264.529.62,1.067.875,1.494a2.565,2.565,0,0,1,.36,1.314A2.448,2.448,0,0,1,16.816,17.341Z" fill="#2b3f6c"/>
    <path id="Path_34769" data-name="Path 34769" d="M13.375,20.419a1.859,1.859,0,0,1-3.1,0,.75.75,0,1,0-1.249.83,3.359,3.359,0,0,0,5.6,0,.75.75,0,1,0-1.25-.83Z" fill="#2b3f6c"/>
  </g>
</svg>
