<svg xmlns="http://www.w3.org/2000/svg" width="20.001" height="20.458" viewBox="0 0 20.001 20.458">
  <path id="Path_34829" data-name="Path 34829" d="M-169.766-8.749l-4.556-4.556a8.707,8.707,0,0,0,2.275-5.871,8.749,8.749,0,0,0-8.75-8.75,8.75,8.75,0,0,0-8.75,8.75,8.751,8.751,0,0,0,8.75,8.75,8.7,8.7,0,0,0,5.376-1.856l4.594,4.594a.75.75,0,0,0,1.061,0A.75.75,0,0,0-169.766-8.749Zm-18.281-10.427a7.25,7.25,0,0,1,7.25-7.25,7.249,7.249,0,0,1,7.25,7.25,7.249,7.249,0,0,1-7.25,7.25A7.25,7.25,0,0,1-188.047-19.176Z" transform="translate(189.547 27.926)" fill="#2b3f6c"/>
</svg>
