<svg xmlns="http://www.w3.org/2000/svg" width="34.838" height="26.152" viewBox="0 0 34.838 26.152">
  <g id="Group_8670" data-name="Group 8670" transform="translate(94.415 48.462)">
    <path id="Path_34835" data-name="Path 34835" d="M-80.874-35a6.731,6.731,0,0,0,6.731-6.731,6.73,6.73,0,0,0-6.731-6.731,6.731,6.731,0,0,0-6.733,6.731A6.732,6.732,0,0,0-80.874-35Zm0-11.032a4.3,4.3,0,0,1,4.3,4.3,4.3,4.3,0,0,1-4.3,4.3,4.3,4.3,0,0,1-4.3-4.3A4.3,4.3,0,0,1-80.874-46.031Z" transform="translate(4.224)" fill="#e4e4e4"/>
    <path id="Path_34836" data-name="Path 34836" d="M-71.093-37.647a24.366,24.366,0,0,0-16.4,0,4.024,4.024,0,0,0-2.67,3.788v1.815A3.907,3.907,0,0,0-85.7-28.178l.54-.078a41.537,41.537,0,0,1,11.74,0l.541.078a3.906,3.906,0,0,0,4.458-3.866v-1.815A4.022,4.022,0,0,0-71.093-37.647Zm.24,5.6a1.475,1.475,0,0,1-1.684,1.46l-.541-.078a43.977,43.977,0,0,0-12.427,0l-.54.078a1.476,1.476,0,0,1-1.685-1.46v-1.815a1.591,1.591,0,0,1,1.056-1.5,21.93,21.93,0,0,1,14.763,0,1.591,1.591,0,0,1,1.056,1.5Z" transform="translate(2.64 5.828)" fill="#e4e4e4"/>
    <path id="Path_34837" data-name="Path 34837" d="M-77.881-38.242A1.216,1.216,0,0,0-79.1-37.026a1.216,1.216,0,0,0,1.215,1.215,5.549,5.549,0,0,0,5.55-5.55,5.549,5.549,0,0,0-5.55-5.548A1.216,1.216,0,0,0-79.1-45.694a1.216,1.216,0,0,0,1.215,1.215,3.118,3.118,0,0,1,3.119,3.118A3.118,3.118,0,0,1-77.881-38.242Z" transform="translate(9.504 0.963)" fill="#e4e4e4"/>
    <path id="Path_34838" data-name="Path 34838" d="M-72.67-38.523a19.463,19.463,0,0,0-2.852-.779,1.217,1.217,0,0,0-1.424.964,1.216,1.216,0,0,0,.964,1.423,17.123,17.123,0,0,1,2.494.682.991.991,0,0,1,.658.933v1.424a.9.9,0,0,1-1.026.891l-.425-.062a1.217,1.217,0,0,0-1.376,1.032,1.214,1.214,0,0,0,1.031,1.374l.425.06a3.329,3.329,0,0,0,3.8-3.3V-35.3A3.422,3.422,0,0,0-72.67-38.523Z" transform="translate(10.823 5.669)" fill="#e4e4e4"/>
    <path id="Path_34839" data-name="Path 34839" d="M-86.859-35.811a1.216,1.216,0,0,0,1.215-1.215,1.216,1.216,0,0,0-1.215-1.215,3.119,3.119,0,0,1-3.119-3.119,3.118,3.118,0,0,1,3.119-3.118,1.216,1.216,0,0,0,1.215-1.215,1.216,1.216,0,0,0-1.215-1.215,5.549,5.549,0,0,0-5.55,5.548A5.549,5.549,0,0,0-86.859-35.811Z" transform="translate(1.244 0.963)" fill="#e4e4e4"/>
    <path id="Path_34840" data-name="Path 34840" d="M-89.293-39.3a19.463,19.463,0,0,0-2.852.779,3.422,3.422,0,0,0-2.27,3.223v1.424a3.328,3.328,0,0,0,3.8,3.3l.425-.06a1.216,1.216,0,0,0,1.032-1.374,1.217,1.217,0,0,0-1.376-1.032l-.425.062a.9.9,0,0,1-1.026-.891V-35.3a.989.989,0,0,1,.658-.933,17.123,17.123,0,0,1,2.494-.682,1.216,1.216,0,0,0,.964-1.423A1.217,1.217,0,0,0-89.293-39.3Z" transform="translate(0 5.669)" fill="#e4e4e4"/>
  </g>
</svg>
